Coordinates
version=1
nRows=19
nColumns=36
inDegrees=yes

Units are S.I. units (second, meters, Newtons, ...)
If the header above contains a line with 'inDegrees', this indicates whether rotational values are in degrees (yes) or radians (no).

endheader
time	pelvis_tilt	pelvis_list	pelvis_rotation	pelvis_tx	pelvis_ty	pelvis_tz	hip_flexion_r	hip_adduction_r	hip_rotation_r	knee_angle_r	knee_angle_r_beta	ankle_angle_r	subtalar_angle_r	mtp_angle_r	hip_flexion_l	hip_adduction_l	hip_rotation_l	knee_angle_l	knee_angle_l_beta	ankle_angle_l	subtalar_angle_l	mtp_angle_l	lumbar_extension	lumbar_bending	lumbar_rotation	arm_flex_r	arm_add_r	arm_rot_r	elbow_flex_r	pro_sup_r	arm_flex_l	arm_add_l	arm_rot_l	elbow_flex_l	pro_sup_l
      1.68333330	      0.18149838	      1.22232237	     -0.50996647	     -0.00230089	      1.32353090	      0.05094032	      0.28193415	     -0.17346776	      3.15754366	      0.83594756	      0.01459004	      6.44924532	     -2.78385600	     -7.49999987	     -0.21129512	      1.56781057	     -1.45186496	      0.57189091	      0.00998138	      5.14266567	      1.89804202	     -7.49999987	     -1.99154775	     -0.53421964	     -1.92353377	      0.31118507	     -7.01529463	     11.20994686	     29.08129907	     86.04910439	      1.67451452	     -7.04304695	     14.29429620	     24.52582120	     90.74846767
      1.70000000	      0.18829479	      1.21926586	     -0.49911744	     -0.00114535	      1.32286306	      0.05156305	      0.31021742	     -0.16338736	      3.15798339	      0.83207197	      0.01452240	      6.45148571	     -2.78487927	     -7.49999987	     -0.23527766	      1.57111822	     -1.45010618	      0.57478290	      0.01003185	      5.14542405	      1.89816659	     -7.49999987	     -1.99892464	     -0.53328946	     -1.92221560	      0.31166904	     -7.01619522	     11.20982375	     29.08085601	     86.04904150	      1.67095679	     -7.04230912	     14.29445060	     24.52440928	     90.74840982
      1.71666670	      0.16501000	      1.18484332	     -0.56329180	     -0.00264638	      1.32443953	      0.05050017	      0.41358675	     -0.09567007	      3.28923064	      0.88504803	      0.01544700	      6.51353470	     -3.01270583	     -7.49999987	     -0.23524858	      1.53632997	     -1.34493140	      0.53791589	      0.00938840	      5.38530235	      1.90464669	     -7.49999987	     -2.17515592	     -0.49581955	     -1.92601728	      0.44530903	     -7.04884284	     11.29179524	     28.90165703	     86.75254321	      1.50517958	     -7.00525384	     13.64068854	     24.72530062	     91.07822417
      1.73333330	      0.27456439	      1.16041420	     -0.46843266	     -0.00254943	      1.32332633	      0.05062329	      0.34593821	     -0.05585567	      3.06793602	      0.89301157	      0.01558599	      6.65290434	     -2.74228657	     -7.49999987	     -0.35816881	      1.50998767	     -1.40126958	      0.55429291	      0.00967424	      5.37659363	      1.76016272	     -7.49999987	     -2.41519801	     -0.44910421	     -2.13714681	      0.55534286	     -6.97858917	     11.31618551	     28.97330898	     85.30455873	      1.52055601	     -6.98775988	     13.72187717	     24.65434175	     89.30641951
      1.75000000	      0.28373782	      1.15091843	     -0.46948498	     -0.00190605	      1.32349367	      0.05067675	      0.36745740	     -0.02807767	      3.18104788	      0.90448446	      0.01578623	      6.56040157	     -3.01220609	     -7.49999987	     -0.38469023	      1.48569405	     -1.31105668	      0.55421590	      0.00967289	      5.35213866	      1.68961718	     -7.49999987	     -2.56317278	     -0.41696079	     -2.10241661	      0.51389278	     -7.01341389	     11.44245437	     29.11352953	     84.40469513	      1.49599146	     -6.99553753	     13.86405438	     24.81234854	     88.28490233
      1.76666670	      0.20393900	      1.11296391	     -0.47902800	     -0.00130239	      1.32026478	      0.05050969	      0.49936774	      0.02137035	      3.18134988	      0.93684977	      0.01635111	      6.67299187	     -2.97185737	     -7.49999987	     -0.31887332	      1.44685345	     -1.35573804	      0.54933199	      0.00958765	      5.38983391	      1.61731839	     -7.49999987	     -2.50760889	     -0.36595164	     -2.10816676	      0.43037378	     -7.05884899	     11.53519287	     29.23892207	     83.98479534	      1.37625621	     -7.00171925	     13.96914969	     24.94175617	     87.83698825
      1.78333330	      0.28894700	      1.10466151	     -0.42783373	     -0.00103947	      1.32012755	      0.05046812	      0.42699638	      0.02749012	      3.21067700	      0.96384355	      0.01682224	      6.80556919	     -3.01546730	     -7.49999987	     -0.43378373	      1.41915132	     -1.38929709	      0.55161078	      0.00962742	      5.59045216	      1.77664887	     -7.49999987	     -2.65120095	     -0.34735655	     -2.13497548	      0.45974115	     -7.05220488	     11.76182272	     29.10854086	     82.77170112	      1.38348142	     -6.95755167	     14.14800609	     24.82432556	     86.43064744
      1.80000000	      0.17326078	      1.10369413	     -0.45483799	     -0.00131709	      1.32403623	      0.04991142	      0.55290714	      0.01060680	      3.40054492	      1.02624634	      0.01791138	      6.62390127	     -3.44231516	     -7.49999987	     -0.29453259	      1.41263273	     -1.36739509	      0.53100021	      0.00926770	      5.45913743	      1.62081465	     -7.49999987	     -2.50811377	     -0.34689098	     -2.09715969	      0.49555518	     -7.16747113	     12.48060167	     28.85182847	     83.18495410	      1.39346087	     -7.02475204	     14.89688536	     24.57550739	     87.01372510
      1.81666670	      0.15808617	      1.09707983	     -0.45679722	     -0.00107690	      1.32485853	      0.05051873	      0.52736563	     -0.01777240	      3.39666822	      1.03305924	      0.01803029	      6.62339535	     -3.44393476	     -7.49999987	     -0.27544319	      1.38468292	     -1.37100496	      0.56857282	      0.00992347	      5.45967301	      1.61897690	     -7.49999987	     -2.51285160	     -0.34662813	     -2.09823152	      0.49172294	     -7.16732390	     12.48062203	     28.85058510	     83.18543856	      1.39041368	     -7.02437994	     14.89710222	     24.57431353	     87.01440603
      1.83333330	      0.11716246	      1.09608503	     -0.41145771	     -0.00106464	      1.32350897	      0.04998320	      0.52493792	     -0.06095642	      3.28027567	      1.07087597	      0.01869031	      6.59903972	     -3.48686835	     -7.49999987	     -0.26791160	      1.37144502	     -1.49471922	      0.52092061	      0.00909178	      5.43955546	      1.57657890	     -7.49999987	     -2.60053117	     -0.34029060	     -2.11563223	      0.38602824	     -7.14903940	     12.48599363	     28.81064549	     83.19685606	      1.29421517	     -7.01933952	     14.90406240	     24.53568326	     87.03011907
      1.85000000	      0.11031173	      1.08257083	     -0.43763695	     -0.00142530	      1.32227884	      0.04989564	      0.51598775	     -0.07969318	      3.05682178	      1.13546396	      0.01981758	      6.63735926	     -3.38066814	     -7.49999987	     -0.26172934	      1.36004298	     -1.72183551	      0.50389892	      0.00879470	      5.54254232	      2.04572267	     -7.49999987	     -2.63296739	     -0.32146338	     -2.22216879	      0.50391521	     -7.06865469	     12.47301136	     28.51966372	     82.46648491	      1.26864010	     -6.95421802	     14.85521128	     24.30099016	     86.14852893
      1.86666670	      0.03460160	      1.05840748	     -0.39484621	     -0.00356451	      1.32169647	      0.04908263	      0.59856386	     -0.08466409	      2.99564524	      1.17213716	      0.02045765	      6.66373565	     -3.50846051	     -7.49999987	     -0.12729216	      1.35489532	     -1.63867595	      0.48901965	      0.00853500	      5.62207454	      2.03185873	     -7.49999987	     -2.72817022	     -0.27566952	     -2.23131749	      0.53390394	     -7.11541229	     12.51525366	     28.54608233	     82.57505214	      1.28114827	     -6.94244622	     14.89630216	     24.35146058	     86.28386344
      1.88333330	     -0.00307055	      1.03973356	     -0.37956058	     -0.00313256	      1.32012580	      0.04895183	      0.62038771	     -0.08765674	      3.02633708	      1.16238881	      0.02028751	      6.67455120	     -3.69738447	     -7.49999987	     -0.03644026	      1.34912071	     -1.60965909	      0.47369202	      0.00826749	      5.81177370	      2.12218955	     -7.49999987	     -2.87455216	     -0.24740152	     -2.26424542	      0.58085219	     -7.12675249	     12.61268287	     28.61258623	     81.22457523	      1.23947001	     -6.91140751	     14.84534136	     24.46066670	     84.71001696
      1.90000000	     -0.16513392	      1.02861683	     -0.38286565	     -0.00286870	      1.32066483	      0.04846956	      0.79518090	     -0.09200297	      3.20442134	      1.19698642	      0.02089135	      6.55521663	     -4.14140134	     -7.49999987	      0.17809577	      1.34927046	     -1.60968023	      0.46749514	      0.00815933	      5.88493998	      2.14922590	     -7.49999987	     -2.80937920	     -0.21866398	     -2.31030155	      0.77755005	     -7.35128907	     13.78653177	     28.39870601	     82.95924151	      1.26566953	     -7.03077033	     15.68782689	     24.34796584	     86.90272420
      1.91666670	     -0.13604361	      1.00898362	     -0.31686889	     -0.00231530	      1.32087310	      0.04906540	      0.70535423	     -0.06983301	      3.06301413	      1.19540543	      0.02086376	      6.64374756	     -3.95989262	     -7.49999987	      0.16272407	      1.32839881	     -1.52502992	      0.46700530	      0.00815078	      5.91386189	      2.18292856	     -7.49999987	     -3.02870197	     -0.19428651	     -2.33728073	      0.69074236	     -7.31064551	     13.40939560	     28.62983725	     81.71377491	      1.15959473	     -6.98512000	     15.22839755	     24.61613200	     85.41343041
      1.93333330	     -0.36350156	      0.99991404	     -0.32387412	     -0.00270523	      1.31920449	      0.04857636	      0.93950080	     -0.04273877	      3.18625032	      1.25131992	      0.02183965	      6.59485624	     -4.13200460	     -7.49999987	      0.42592385	      1.32826089	     -1.35077175	      0.47326663	      0.00826006	      5.90706177	      1.88310484	     -7.49999987	     -2.84734388	     -0.18422087	     -2.30809151	      0.71029373	     -7.33304769	     13.58994307	     28.42376261	     82.39856647	      1.12886559	     -6.96779994	     15.29027469	     24.37199130	     86.32919672
      1.95000000	     -0.31461296	      1.00977150	     -0.25862734	     -0.00249434	      1.31918869	      0.04904243	      0.83606525	     -0.03790013	      3.13080709	      1.22614712	      0.02140030	      6.70587978	     -4.08380512	     -7.49999987	      0.36561961	      1.32582986	     -1.40788274	      0.48271700	      0.00842500	      5.96334342	      2.13008308	     -7.49999987	     -3.04330184	     -0.19758213	     -2.31660551	      0.57532843	     -7.33927917	     13.41134563	     28.79285126	     81.32689492	      0.99724503	     -6.99558281	     15.05329574	     24.75486351	     85.09362890
      1.96666670	     -0.35280246	      1.00763108	     -0.22782950	     -0.00032976	      1.32044736	      0.05040020	      0.86585660	     -0.03007173	      3.14760150	      1.21760977	      0.02125130	      6.70569274	     -4.07401649	     -7.49999987	      0.36802049	      1.29712044	     -1.38944332	      0.50396069	      0.00879577	      5.96723808	      2.12792467	     -7.49999987	     -3.08518497	     -0.21889133	     -2.30258752	      0.51493580	     -7.31694674	     13.41951935	     28.77583686	     81.34623415	      0.92076945	     -7.01609472	     15.05400405	     24.72828581	     85.11612236
      1.98333330	     -0.51994285	      1.01352827	     -0.18009542	      0.00006041	      1.31706857	      0.04962597	      1.02431846	     -0.04591653	      3.05624458	      1.20342539	      0.02100374	      6.83778300	     -4.05106892	     -7.49999987	      0.50019045	      1.28697128	     -1.24146181	      0.50780643	      0.00886289	      5.96504877	      1.92376247	     -7.49999987	     -2.82579822	     -0.24988177	     -2.33521535	      0.29964810	     -7.21311423	     12.38773550	     28.76545239	     86.21339243	      0.60602156	     -6.94670845	     13.33137864	     24.94061806	     91.10552770
